<svg width="16" height="16" viewBox="0 0 16 16" fill="currentColor" xmlns="http://www.w3.org/2000/svg">
<path d="M3.05002 3.05002C3.23755 2.86253 3.49187 2.7572 3.75705 2.7572C4.02223 2.7572 4.27655 2.86253 4.46408 3.05002L8.00002 6.58596L11.536 3.05002C11.7244 2.86701 11.9773 2.76549 12.24 2.76741C12.5026 2.76933 12.754 2.87453 12.9398 3.06028C13.1255 3.24603 13.2307 3.4974 13.2326 3.76008C13.2345 4.02276 13.133 4.27564 12.95 4.46408L9.41408 8.00002L12.95 11.536C13.133 11.7244 13.2345 11.9773 13.2326 12.24C13.2307 12.5026 13.1255 12.754 12.9398 12.9398C12.754 13.1255 12.5026 13.2307 12.24 13.2326C11.9773 13.2345 11.7244 13.133 11.536 12.95L8.00002 9.41408L4.46408 12.95C4.27564 13.133 4.02276 13.2345 3.76008 13.2326C3.4974 13.2307 3.24603 13.1255 3.06028 12.9398C2.87453 12.754 2.76933 12.5026 2.76741 12.24C2.76549 11.9773 2.86701 11.7244 3.05002 11.536L6.58596 8.00002L3.05002 4.46408C2.86253 4.27655 2.7572 4.02223 2.7572 3.75705C2.7572 3.49187 2.86253 3.23755 3.05002 3.05002Z"/>
</svg>
