<svg width="20" height="20" viewBox="0 0 20 20" fill="currentColor" xmlns="http://www.w3.org/2000/svg">
<g clip-path="url(#clip0_584_666)">
<path d="M2.92999 17.07C1.97489 16.1475 1.21306 15.044 0.688974 13.824C0.164884 12.604 -0.110979 11.2918 -0.122517 9.96397C-0.134055 8.63618 0.118962 7.31938 0.621771 6.09042C1.12458 4.86145 1.86711 3.74493 2.80604 2.80601C3.74496 1.86708 4.86148 1.12455 6.09045 0.62174C7.31941 0.118932 8.63621 -0.134085 9.964 -0.122547C11.2918 -0.111009 12.604 0.164853 13.824 0.688943C15.0441 1.21303 16.1475 1.97486 17.07 2.92996C18.8916 4.81598 19.8995 7.342 19.8767 9.96397C19.8539 12.5859 18.8023 15.0941 16.9482 16.9481C15.0941 18.8022 12.586 19.8539 9.964 19.8767C7.34203 19.8995 4.81601 18.8915 2.92999 17.07ZM11.4 9.99996L14.23 7.16996L12.82 5.75996L9.99999 8.58996L7.16999 5.75996L5.75999 7.16996L8.58999 9.99996L5.75999 12.83L7.16999 14.24L9.99999 11.41L12.83 14.24L14.24 12.83L11.41 9.99996H11.4Z"/>
</g>
<defs>
<clipPath id="clip0_584_666">
<rect width="20" height="20" fill="white"/>
</clipPath>
</defs>
</svg>
