<svg width="24" height="24" viewBox="0 0 24 24" fill="currentColor" xmlns="http://www.w3.org/2000/svg">
<path d="M12 8.75C11.6685 8.75 11.3505 8.8817 11.1161 9.11612C10.8817 9.35054 10.75 9.66848 10.75 10C10.75 10.3315 10.8817 10.6495 11.1161 10.8839C11.3505 11.1183 11.6685 11.25 12 11.25C12.3315 11.25 12.6495 11.1183 12.8839 10.8839C13.1183 10.6495 13.25 10.3315 13.25 10C13.25 9.66848 13.1183 9.35054 12.8839 9.11612C12.6495 8.8817 12.3315 8.75 12 8.75Z" />
<path d="M18.227 3.9C17.4194 3.06381 16.4521 2.39836 15.3824 1.94314C14.3127 1.48792 13.1625 1.25221 12 1.25C9.66 1.25 7.421 2.206 5.773 3.9C2.743 7.017 2.761 10.75 4.161 14.099C5.547 17.411 8.304 20.434 10.955 22.403C11.257 22.6278 11.6235 22.7493 12 22.7493C12.3765 22.7493 12.743 22.6278 13.045 22.403C15.695 20.434 18.453 17.411 19.839 14.099C21.239 10.751 21.257 7.017 18.227 3.9ZM12 12.75C11.2707 12.75 10.5712 12.4603 10.0555 11.9445C9.53973 11.4288 9.25 10.7293 9.25 10C9.25 9.27065 9.53973 8.57118 10.0555 8.05546C10.5712 7.53973 11.2707 7.25 12 7.25C12.7293 7.25 13.4288 7.53973 13.9445 8.05546C14.4603 8.57118 14.75 9.27065 14.75 10C14.75 10.7293 14.4603 11.4288 13.9445 11.9445C13.4288 12.4603 12.7293 12.75 12 12.75Z" />
</svg>
