<svg width="24" height="24" viewBox="0 0 24 24" fill="currentColor" xmlns="http://www.w3.org/2000/svg">
<path d="M13 6C14.1046 6 15 5.10457 15 4C15 2.89543 14.1046 2 13 2C11.8954 2 11 2.89543 11 4C11 5.10457 11.8954 6 13 6Z" />
<path d="M13.978 12.2699C14.223 12.6379 14.589 12.9169 15.009 13.0569L17.684 13.9489L18.317 12.0529L15.642 11.1609L13.979 8.66595C13.786 8.37661 13.521 8.14257 13.21 7.98695L11.776 7.26995C11.3491 7.05762 10.8604 7.00478 10.398 7.12095L7.20498 7.91795C6.92467 7.98765 6.66279 8.11724 6.43734 8.29781C6.21189 8.47837 6.02822 8.70563 5.89898 8.96395L4.10498 12.5529L5.89398 13.4479L7.68798 9.85895L9.91098 9.30295L8.10698 17.6489L4.43298 20.176L5.56598 21.8239L9.24098 19.2959C9.66198 19.0059 9.95398 18.5709 10.061 18.0709L10.578 15.6829L13.095 17.5709L14.02 22.1959L15.981 21.8029L15.056 17.176C14.9589 16.694 14.6876 16.2646 14.294 15.9699L12.123 14.3419L12.77 10.4569L13.978 12.2699Z" />
</svg>
